<svg xmlns="http://www.w3.org/2000/svg" width="62.316" height="74" viewBox="0 0 62.316 74">
  <path id="_-train_90433" data-name="-train_90433" d="M35.158,2C19.579,2,4,3.947,4,17.579v37A13.647,13.647,0,0,0,17.632,68.211l-5.842,5.842V76h8.685l7.789-7.789H42.947L50.737,76h7.789V74.053l-5.842-5.842A13.647,13.647,0,0,0,66.316,54.579v-37C66.316,3.947,52.373,2,35.158,2ZM17.632,60.421a5.842,5.842,0,1,1,5.842-5.842A5.834,5.834,0,0,1,17.632,60.421ZM31.263,33.158H11.789V17.579H31.263Zm7.789,0V17.579H58.526V33.158ZM52.684,60.421a5.842,5.842,0,1,1,5.842-5.842A5.834,5.834,0,0,1,52.684,60.421Z" transform="translate(-4 -2)" fill="#00a88f"/>
</svg>
