<svg xmlns="http://www.w3.org/2000/svg" width="95.566" height="47.027" viewBox="0 0 95.566 47.027">
  <path id="gwr-mono" d="M57.035,48.018c-.028-.1-.04-.2-.068-.289q-4.026-10.738-8.044-21.481-3.24-8.569-6.443-17.163c-.028-.087-.066-.188-.1-.307h5.9q4.384,11.691,8.772,23.411h.056Q62.961,16.595,68.8,1h.068c1.3,3.452,2.58,6.9,3.878,10.363q1.95,5.215,3.908,10.421t3.9,10.389h.056a.047.047,0,0,0,.03-.009.093.093,0,0,0,.028-.052Q85.039,20.46,89.4,8.8h5.9L80.631,47.917a.224.224,0,0,0-.068.007c-.657-1.716-1.3-3.442-1.939-5.168-.659-1.742-1.3-3.477-1.959-5.229q-.967-2.6-1.959-5.194c-.641-1.724-1.3-3.466-1.939-5.194-.659-1.742-1.31-3.477-1.959-5.22-.639-1.724-1.3-3.45-2-5.176l-.123.331q-3.614,9.68-7.253,19.349c-1.424,3.825-2.867,7.643-4.3,11.468a.566.566,0,0,1-.028.136.25.25,0,0,0-.068-.009Zm59.523-20.41a7.182,7.182,0,0,1-2.7,4.607q-.137.121-.287.23c.956,2.567,1.911,5.117,2.887,7.693h-5.9c-.745-1.989-1.5-4-2.256-6h-7.138v6H95.571V19.217c.125,0,.239-.009.344-.009,4.1,0,8.189-.007,12.288,0a8.244,8.244,0,0,1,8.191,5.713c.066.265.113.536.171.8-.01.627-.01,1.256-.01,1.886Zm-15.412,1.555h6.909a4.239,4.239,0,0,0,.468-.026,2.5,2.5,0,0,0,2.341-3.29,2.8,2.8,0,0,0-2.608-1.665c-2.286-.009-4.569,0-6.853,0h-.259v4.981ZM21,28.883c.068-.307.123-.613.2-.918a11.136,11.136,0,0,1,6.222-7.975,13.858,13.858,0,0,1,13.121.451c.123.077.239.153.372.239-.639,1.717-1.28,3.417-1.939,5.168-.1-.1-.181-.16-.259-.237a7.032,7.032,0,0,0-3.956-1.965c-3.5-.561-6.919,1.36-7.864,4.4-1.1,3.52,1.473,7.106,5.535,7.711A7.517,7.517,0,0,0,37.9,34.494a.46.46,0,0,0,.229-.408c-.01-.435,0-.876,0-1.31,0-.077-.01-.162-.01-.263H33.575V27.591c.01,0,.01-.009.03-.026s.008-.009.028-.009a.6.6,0,0,1,.123-.009h9.786a.432.432,0,0,1,.115.026,2.261,2.261,0,0,1,.028.23v8.289a.449.449,0,0,1-.1.34,13.336,13.336,0,0,1-3.793,2.94,13.868,13.868,0,0,1-7.168,1.446c-5.342-.331-9.975-3.757-11.247-8.535-.115-.418-.171-.867-.259-1.284-.028-.136-.086-.289-.123-.434V28.883Z" transform="translate(-21 -1)" fill="#8a9497"/>
</svg>
