<svg xmlns="http://www.w3.org/2000/svg" width="159.028" height="46.761" viewBox="0 0 159.028 46.761">
  <g id="heathrowexpress-mono" transform="translate(0)">
    <g id="HeathrowExpress-Copy-2" transform="translate(0 0)">
      <g id="Group-18">
        <path id="Combined-Shape" d="M23.445.8A23.381,23.381,0,1,1,.11,24.179,23.4,23.4,0,0,1,23.445.8Zm.023,27.877-.023.023-1.037.968-1.359,1.245s-.991.922-1.013.946c-.023.046-1.359,1.268-1.405,1.314s-1.428,1.314-1.451,1.337c0,.023-1.06.991-1.06.991h0l-1.2,1.107s-.9.83-.944.876c-.023.046-1.152,1.084-1.2,1.13-.023.046-1.083,1.014-1.083,1.014l-.036.034c-.09.083-.318.294-.355.312s-.115.092-.207.161a20.188,20.188,0,0,0,12.416,4.289,19.946,19.946,0,0,0,12.37-4.266.738.738,0,0,1-.184-.138c-.019-.018-.206-.192-.425-.393l-.334-.307-.392-.36h0L33,37.529,30.816,35.5,29.48,34.255l-1.267-1.176-1.244-1.153-.921-.853-.967-.9-1.221-1.13Zm52.095,1.433c2.336,0,3.378,1.989,3.378,3.947s-.884,4.2-3.378,4.2a3.021,3.021,0,0,1-2.368-.916v3.852h-1.7V30.266h1.642v.821A3.288,3.288,0,0,1,75.562,30.108ZM37.312,9.445l-.484.807h0l-.253.415-.369.6-.438.761-.576,1.038-.737,1.291-.415.715-.438.738-.691,1.222-.484.876-.9,1.591L30.724,20.9s-.576,1.014-.6,1.084c-.023.046-.184.369-.276.576a5.527,5.527,0,0,0-.323.992,2.634,2.634,0,0,0-.046,1.038,5.712,5.712,0,0,0,.23.876c.046.115.276.646.415.9l.113.211.042.078.006.011s.507.922.553.992c.046.092.737,1.291.737,1.291h0l.576,1.015.714,1.291.576,1.038.76,1.314.921,1.637.76,1.337.991,1.729s.253.415.346.577c.023.023.023.046.069.023a20.177,20.177,0,0,0,.023-29.468ZM9.739,9.422a20.154,20.154,0,0,0-.023,29.491h0l.23-.415.392-.692.507-.922.806-1.453.622-1.107.576-1.014.461-.83.576-1.014.553-.992.576-1.038.668-1.176.576-1.038.323-.577s.276-.507.322-.622a6.422,6.422,0,0,0,.346-.946,2.76,2.76,0,0,0,.115-.576,1.951,1.951,0,0,0,.023-.6,4.03,4.03,0,0,0-.138-.784,6.746,6.746,0,0,0-.3-.784c-.046-.115-.276-.576-.415-.83-.023-.069-.369-.692-.369-.692h0l-.3-.553-.322-.553-.369-.669-.553-.968-.576-1.038-.53-.922-.276-.484-.507-.9-.553-.991-.461-.83-.6-1.061-.484-.853-.392-.692-.392-.692ZM102.4,30.108a5.551,5.551,0,0,1,1.737.284v1.642l-.158-.095a4.832,4.832,0,0,0-1.421-.41c-.537,0-1.168.189-1.168.758s.6.852,1.263,1.137c.884.41,1.989.915,1.989,2.336a2.594,2.594,0,0,1-2.842,2.494,4.406,4.406,0,0,1-2.115-.442V36.17l.221.158a3.558,3.558,0,0,0,1.642.505c.221,0,1.263-.031,1.263-.915,0-.505-.6-.789-1.263-1.137-.884-.411-1.958-.947-1.958-2.21C99.59,31.055,100.663,30.108,102.4,30.108Zm-6,0a5.551,5.551,0,0,1,1.737.284v1.642l-.158-.095a4.833,4.833,0,0,0-1.421-.41c-.537,0-1.168.189-1.168.758s.6.852,1.263,1.137c.884.41,1.989.915,1.989,2.336a2.551,2.551,0,0,1-2.81,2.494,4.406,4.406,0,0,1-2.115-.442V36.17l.221.158a3.558,3.558,0,0,0,1.642.505c.221,0,1.263-.031,1.263-.915,0-.505-.6-.789-1.263-1.137-.884-.411-1.989-.947-1.989-2.21C93.591,31.055,94.664,30.108,96.4,30.108Zm-7.2-.031c2.115,0,3.284,1.421,3.284,3.947a4.253,4.253,0,0,1-.031.663H87.4A2.26,2.26,0,0,0,89.9,36.612a6.068,6.068,0,0,0,2.115-.347h0v1.61a9.534,9.534,0,0,1-2.368.316,3.945,3.945,0,0,1-4.2-4.136A3.692,3.692,0,0,1,89.2,30.077ZM61.7,27.519v1.61H57.439v2.684h3.884v1.61H57.439v3.063H61.7V38.1H55.639V27.519Zm3.378,2.747,1.547,2.557,1.579-2.557h1.926l-2.526,3.757L70.352,38.1H68.268L66.5,35.286,64.732,38.1H62.712l2.81-4.073-2.557-3.757Zm19.639-.095a.786.786,0,0,1,.252.031h0V32.1a2.772,2.772,0,0,0-.537-.063,3.149,3.149,0,0,0-2.3.979h0v5.052h-1.8V30.329h1.8v1.105A3.647,3.647,0,0,1,84.719,30.171Zm-9.472,1.358c-1.421,0-2.052,1.389-2.052,2.684,0,1.263.632,2.652,2.052,2.652a1.533,1.533,0,0,0,1.168-.505,3.336,3.336,0,0,0,.758-2.179,2.9,2.9,0,0,0-.694-2.147A1.574,1.574,0,0,0,75.246,31.529ZM89.139,31.5a1.774,1.774,0,0,0-1.7,1.768h0V33.3h3.189v-.189A1.515,1.515,0,0,0,89.139,31.5ZM88.949,9.666c3.631,0,5.241,1.263,5.241,4.1h0v8.209a24.665,24.665,0,0,1-4.515.505c-3.6,0-5.589-1.421-5.589-4.041,0-2.589,2.4-4.2,6.283-4.2a4.8,4.8,0,0,1,1.042.063,1.085,1.085,0,0,0,.032-.284C91.444,12.7,90.5,12,88.634,12a8.2,8.2,0,0,0-3.347.663h0V10.139A21.207,21.207,0,0,1,88.949,9.666Zm45.624-.032c3.694,0,6.062,2.494,6.062,6.409,0,3.884-2.368,6.346-6.062,6.378-3.726,0-6.125-2.463-6.125-6.378S130.88,9.634,134.574,9.634ZM101.074,6.7V9.918h3.789l-.884,2.368h-2.9v5.9c0,.758.063,1.105.316,1.358a1.875,1.875,0,0,0,1.294.411,7.388,7.388,0,0,0,2.179-.411h0v2.3a9.257,9.257,0,0,1-2.9.537,4.8,4.8,0,0,1-2.463-.537c-.979-.568-1.231-1.579-1.231-3.536h0v-6H96.117V9.95h2.147V6.7ZM77.267,9.634c3.284,0,5.147,2.242,5.147,6.22,0,.316-.031.789-.031,1.042H74.425c.126,2.084,2.147,3.031,3.947,3.031a10.027,10.027,0,0,0,3.315-.568h0v2.526a14.159,14.159,0,0,1-3.726.505c-3.978,0-6.63-2.589-6.63-6.5C71.331,12.16,73.762,9.634,77.267,9.634Zm67.316.316,2.084,8.714,2.526-8.714h2.463l2.368,8.714L156.36,9.95h2.779l-3.6,12.188h-2.9l-2.3-8.746L147.8,22.137h-2.9L141.678,9.95ZM58.638,5.214v6.978h7.167V5.214h3.031V22.137H65.806V14.686H58.638v7.451h-3V5.214Zm51.023-.032V11.4a6.119,6.119,0,0,1,4.073-1.768,3.714,3.714,0,0,1,2.9,1.263c.853.979.947,2.147.947,4.01h0v7.23h-2.81V15.248a4.313,4.313,0,0,0-.5-2.52,1.836,1.836,0,0,0-1.358-.568,5.178,5.178,0,0,0-3.252,1.61h0v8.335h-2.778V5.182Zm17.871,4.483a1.8,1.8,0,0,1,.411.032h0v2.968a7.831,7.831,0,0,0-.853-.095,4.683,4.683,0,0,0-3.6,1.61h0v7.957H120.65V9.95h2.81v1.737A5.661,5.661,0,0,1,127.533,9.666Zm-37.32,6.662c-1.863,0-3.094.758-3.094,1.926s.979,1.863,2.589,1.863a4.882,4.882,0,0,0,1.737-.284h0v-3.41C91.065,16.391,90.686,16.359,90.212,16.328Zm44.361-4.389c-1.831,0-3.031,1.484-3.031,4.073s1.231,4.073,3.031,4.073,3-1.516,3-4.073S136.373,11.939,134.574,11.939ZM23.491,3.98a20.086,20.086,0,0,0-12.37,4.266h0l.053.044c.177.153.646.578,1.26,1.132.484.438,1.106,1.015,1.728,1.591,2.1,1.914,4.492,4.127,4.492,4.127h0l1.221,1.13,1.2,1.084,2.28,2.1.161.092,1.013-.922,1.52-1.383.714-.646.852-.807,1.221-1.13.829-.761.99-.9.852-.784.737-.669.921-.853s.622-.576.645-.6.829-.761.829-.761h0l.9-.83s.3-.254.323-.277h0l-.546-.41A20.113,20.113,0,0,0,23.491,3.98Zm53.618,7.9a2.759,2.759,0,0,0-2.652,2.779h5.052a.972.972,0,0,1-.032-.284C79.351,12.823,78.435,11.844,77.109,11.876Z" transform="translate(-0.11 -0.798)" fill="#8a9497"/>
      </g>
    </g>
  </g>
</svg>
