<svg id="italo-mono" xmlns="http://www.w3.org/2000/svg" width="179.19" height="53" viewBox="0 0 179.19 53">
  <path id="Path_80" data-name="Path 80" d="M0,0H179.19V53H0Z" fill="none" fill-rule="evenodd"/>
  <g id="Group_9688" data-name="Group 9688" transform="translate(21.921 5.236)">
    <path id="Path_81" data-name="Path 81" d="M138.882,26.631c2.069-.546,5.7-.06,8.93.88a18.326,18.326,0,0,1,5.76,2.987,14.413,14.413,0,0,1,3.249,2.933c.976,1.445.526,2.081-.551,2.467-.892.319-2.542-.3-4.2.231-3.894,1.252-3.508,4.579.143,6.284a24.806,24.806,0,0,0,4.121,1.708c3.044.816,6.286,1.254,6.945,1.465,1.5.48.992,1.023.05.936-1.191-.108-3.136-.233-5-.464-1.33-.167-2.835-.3-4-.552-3.172-.677-6.638-2.351-9.9-3.735A36.143,36.143,0,0,0,129.224,39.2c-1.772.129-3.259,1.015-4.824,1.5-1,.311-5.929,2.716-10.278,4.283-3.106,1.121-5.611,1.571-6.286,1.234-.474-.237.782-.657,2.411-1.394.623-.285,4.95-1.957,7.058-3.1a38.249,38.249,0,0,0,4.119-2.879c4.653-3.144,6.236-4.579,10.724-5.686a48.685,48.685,0,0,1,12.065-1.649,17.275,17.275,0,0,1,2.1.06c1.71.2,3.006-.289,3.3-.792.225-.382-1.053-.9-2.762-1.236a44.18,44.18,0,0,1-5.362-.747c-2.712-.6-4.9-1.559-2.616-2.16M20.24,12.54h3.016a3.116,3.116,0,0,1,3.016,3.19V41.506H23.255a3.113,3.113,0,0,1-3.016-3.186V12.54M14.062,34.668a3.232,3.232,0,0,1,0,6.455,3.231,3.231,0,0,1,0-6.453M31,6.01h3.016A3.115,3.115,0,0,1,37.028,9.2v3.725H42.7v3.227h-5.67V33.665c.151,2.521.916,3.7,2.11,4.221,1.553.681,3.787.07,6.381.07l.05,2.764a39.7,39.7,0,0,1-5.979.319q-.705-.072-1.4-.211a9.665,9.665,0,0,1-4.382-2C30.721,36.257,31,31.881,31,28.2V6.01M68.317,24.431V40.968H65.5a2.909,2.909,0,0,1-2.817-2.977v-.012a8.717,8.717,0,0,1-3.18,2.423c-3.166,1.234-7.233,1.439-10.337-1.031a7.5,7.5,0,0,1-2.706-5.23c-.7-5.507,2.5-10.4,9.282-10.4h6.941V22.549a5.779,5.779,0,0,0-1.868-4.715c-1.716-1.447-4.386-1.74-7.034-1.74H49.277V13.022h4.4A20.824,20.824,0,0,1,61.4,14.127a11.868,11.868,0,0,1,5.346,3.624c1.354,1.806,1.569,4.462,1.569,6.68Zm-5.85,2.421a35.176,35.176,0,0,1-.139,6c-.816,4.5-4.547,5.664-6.986,5.109A3.919,3.919,0,0,1,52.2,34.537a6.314,6.314,0,0,1,.94-4.711,7.574,7.574,0,0,1,5.877-2.9c1.2-.068,2.4-.02,3.452-.072ZM72.57,6.01h3.016A3.116,3.116,0,0,1,78.6,9.2V33.665c.149,2.521.916,3.7,2.11,4.221,1.553.681,3.787.07,6.381.07l.048,2.764a39.682,39.682,0,0,1-5.979.319q-.7-.072-1.4-.211a9.672,9.672,0,0,1-4.384-2C72.293,36.257,72.57,31.881,72.57,28.2V6.01" transform="translate(-11.01 -6.01)" fill="#8a9497" fill-rule="evenodd"/>
    <path id="Path_82" data-name="Path 82" d="M61.345,9.512c7.245,0,13.119,6.347,13.119,14.176S68.59,37.864,61.343,37.864,48.226,31.517,48.226,23.688,54.1,9.512,61.345,9.512Zm-.219,3.227c4.076,0,7.377,4.954,7.377,11.064s-3.3,11.064-7.377,11.064S53.749,29.914,53.749,23.8s3.3-11.064,7.377-11.064Z" transform="translate(25.871 -2.54)" fill="#8a9497" fill-rule="evenodd"/>
  </g>
</svg>
