<svg id="lner-mono" xmlns="http://www.w3.org/2000/svg" width="119.146" height="47.489" viewBox="0 0 119.146 47.489">
  <path id="Path_83" data-name="Path 83" d="M36.705,39.565H18.689V11.44H15.075v31.4h21.63ZM48.1,22.878,69.589,50.563V11.44H62.634V30.773L41.141,3.074v39.77H48.1Zm36.033-5.294h17.147V11.44H77.129v31.4h24.388V36.7H84.129V30.112H99.223V23.966H84.129Zm40.26,12.44c5.037-.9,8.693-3.956,8.693-9.145v-.1a8.581,8.581,0,0,0-2.473-6.19c-2.009-1.971-5.171-3.146-9.1-3.146H107.752v31.4h3.612v-12.2h9.143l9.278,12.2h4.436l-9.832-12.822Zm-13.041-2.558V14.717h9.877c5.171,0,8.183,2.339,8.183,6.192V21c0,4.042-3.43,6.455-8.227,6.455h-9.834v.014Z" transform="translate(-15.075 -3.074)" fill="#8a9497"/>
</svg>
