<svg xmlns="http://www.w3.org/2000/svg" width="94.265" height="49.622" viewBox="0 0 94.265 49.622">
  <path id="Path_91" data-name="Path 91" d="M46.429,32.957a27.756,27.756,0,0,0-5.6-3.215c-3.176-1.533-5.344-2.325-4.822-3.865.617-1.824,3.813-2.515,6.7-2.449a17,17,0,0,1,3.7.5l1.053-3.3a24.526,24.526,0,0,0-4.4-.458c-5.8-.135-11.044,1.461-12.39,4.838-1.6,4.01,2.933,6.266,6.863,8.123C40.653,34.6,43.116,36,42.25,37.837c-.673,1.428-2.879,2.1-6.088,2.025a22.478,22.478,0,0,1-8.977-2.23l-1.623,3.5a28.07,28.07,0,0,0,9.686,2.274c6.634.153,10.933-1.511,12.653-5.117a4.079,4.079,0,0,0,.426-2.407.118.118,0,0,0,.111-.1l3.072-9.979a57.8,57.8,0,0,1,7.827,17.2h5.055l2.5-8.169c.026-.084.08-.1.163-.1s.145.028.155.1c.761,5.131,5.635,8.577,12.543,8.577a24.753,24.753,0,0,0,9.511-1.788L91.88,33h10.055l1.025-3.345H92.905l1.732-5.664h11.982l1.043-3.466H90.83l-5.712,18.7a17.373,17.373,0,0,1-4.277.476c-3.375,0-6.073-.838-7.6-2.708a6.586,6.586,0,0,1-1.322-5.236c.677-4.818,5.161-7.862,11.154-7.862a28.548,28.548,0,0,1,3.725.239l1.187-3.634a32.223,32.223,0,0,0-4.912-.332c-5.316,0-9.935,1.915-12.932,5.292a.285.285,0,0,1-.247.1c-.094,0-.155-.016-.131-.1l1.5-4.93H66.877l-4.8,15.769a57.209,57.209,0,0,0-8.516-15.769H48.846L45.326,32a11.961,11.961,0,0,1,1.1.958ZM21,1.688C21,.647,21.681.161,22.73.12Q25.924-.006,29.121,0c18.242,0,58.408,2.511,85.271,19.791a1.5,1.5,0,0,1,.737,2.041c-.147.474-8.508,26.741-8.508,26.741-.346.986-.94,1.049-1.68,1.049H22.465A1.479,1.479,0,0,1,21,48.083Z" transform="translate(-21 0)" fill="#8a9497" fill-rule="evenodd"/>
</svg>
