<svg id="thalys-mono" xmlns="http://www.w3.org/2000/svg" width="179.583" height="53" viewBox="0 0 179.583 53">
  <path id="Path_86" data-name="Path 86" d="M0,0H179.19V53H0Z" fill="none" fill-rule="evenodd"/>
  <g id="Group_9689" data-name="Group 9689" transform="translate(0.492 4.511)">
    <path id="Path_87" data-name="Path 87" d="M134.126,15.911c0-.349.125-.525.283-.592l.512-.2c.289-.126.438-.272.115-.757l-1.573-2.291a1.611,1.611,0,0,1-.331-1.029V10.008a5.847,5.847,0,0,0-2.839-4.816c-1.792-.812-4-.688-7.012.413s-5.151,2.948-8.9,4.327c-6.124,2.25-11.41,1.032-11.886-1.892a17.157,17.157,0,0,0,7.074-1.465c1.443-.669,7.709-3.063,9.334-3.474,18.8-4.754,21.033,12.148,16.933,16.778-.352.442-.145.47.2.5s28.953,2.855,28.953,2.855l.177.389H133a3.689,3.689,0,0,1-2.545-1.2L128.4,19.693c1.6.12,3.552.189,4.086.189.876,0,1.645-.528,1.645-1.25V15.912ZM111.966,26.1a5.208,5.208,0,0,0,2.6.151c.87-.151,10.544-1.319,11.641-1.3l-2.662-2.54c-.765-.752-1.559-1.128-3.43-.843a48.423,48.423,0,0,0-9.955,2.871l1.808,1.658ZM81.1,44.528c-1.617.654-2.276.619-3.237-.273q-1.338-1.242-2.692-2.47c30.55-12.119,88.215-16.876,103.751-16.541l.259.531c-26.938,1.419-75.7,9.147-98.081,18.753ZM11.53,10.849l-.93.022-3.874.017H5.678L2,10.871l-.776-.022L.9,10.839.247,14.631l.448-.009c.589-.022.836-.041,1.093-.239a1.732,1.732,0,0,0,.53-.8l.253-.605.191-.4.028-.009a16.358,16.358,0,0,1,1.891-.062L3.8,19.21a6.686,6.686,0,0,1-.9,3.113l-.354.542L4,22.83h.147l1.937.017h.121c.585,0,.884-.034,1.183-.347a1.785,1.785,0,0,0,.482-.752l.2-.47H7.058l-.812-.017.117-.482a21.859,21.859,0,0,0,.38-2.167l.8-6.13c.946.014,1.82.028,2.075.076l.108,1.252.064.814.346,0c.942-.022,1.278-.31,1.408-1.164l.418-2.62-.434.01Zm15.448,10.39.1-.43.127-.784.263-1.7.4-2.89.39-2.707.167-1.006.01-.076.219-.788-.492-.01-.93.024-1.039.021h-.486l-.561.028a1.132,1.132,0,0,0-.649.31,1.971,1.971,0,0,0-.454.771l-.189.48,1.029-.033.695.033-.094.461-.165,1.23-.02.126-.225,1.579H20.382l.054-.442.191-1.342.2-1.381.181-.967.1-.447.09-.425-.464-.024-.9.024-1.061.021h-.49a1.475,1.475,0,0,0-1.193.332,2.307,2.307,0,0,0-.472.767l-.223.494,1.061-.038.717.033c-.1.47-.2,1.042-.3,1.816l-.681,5.062a14.583,14.583,0,0,1-.344,1.935l-.348.894-.074.213-.167.464,1.274-.034H17.7l1.589.021h.145a1.418,1.418,0,0,0,1.165-.361,1.752,1.752,0,0,0,.478-.74l.2-.47h-.938l-.771-.036.1-.43.127-.784.263-1.706.106-.752h4.689l-.231,1.789c-.1.683-.247,1.428-.368,1.9a4.338,4.338,0,0,1-.348.924l-.08.215-.159.461,1.278-.034H25.1l1.6.021h.127A1.411,1.411,0,0,0,28,22.488a1.733,1.733,0,0,0,.478-.74l.2-.47h-.936l-.769-.04Zm17.368-.007-2.17-10.39-.329.009-.924.022-1.738.019a2.164,2.164,0,0,0-1.049.139,1.587,1.587,0,0,0-.828.784l-.088.169-.229.494,1.543-.041L35.09,18.628l-.458.807L33.7,21.05l-.546.872-.695.912.713.015L34.3,22.83l1.207.022.08-.263a6.835,6.835,0,0,1,.557-1.33l1.234-2.478.2-.4h3.319l.213,1.066a16.547,16.547,0,0,1,.362,2.578l-.036.822.4.005.745-.019h.143l1.252.017H44.1a1.43,1.43,0,0,0,1.181-.361,1.714,1.714,0,0,0,.478-.738l.2-.47h-.83l-.788-.046Zm-4.291-7.68.193,1.307.285,1.641.008.046.056.22h-2.19l1.649-3.216ZM58.7,19.277a1.981,1.981,0,0,0-.508.8l-.291.568-.231.413a4.871,4.871,0,0,1-1.294.086l-1.434-.038c.165-.722.344-1.732.482-2.743l.368-2.931.412-2.676.115-.562.139-.774-.092.15.46-.76-.653.062h-.93l-1.3.017h-.577l-.565.029a1.146,1.146,0,0,0-.647.31,2.364,2.364,0,0,0-.468.764l-.227.494,1.061-.046.806.052c-.1.49-.2,1.085-.285,1.809l-.679,5.057a15.131,15.131,0,0,1-.444,2.265l-.319.746-.2.482.567,0,1.579-.057.149.017,5.483.043h.311l.776-3.791H59.82c-.587,0-.86.017-1.123.218Zm17.079-8.406-1.406-.028-.1.239a6.191,6.191,0,0,1-.691,1.266L72.1,14.688l-.8,1.226-.321-.81-.327-.832q-.547-1.335-1-2.7l-.119-.447-.068-.267-.317-.014-.926.022-.757.017h-.378l-.546.029a.992.992,0,0,0-.657.327,1.9,1.9,0,0,0-.478.746l-.225.494,1.015-.046.653.062L69.2,17.983l-.179,1.379a13.528,13.528,0,0,1-.438,2.255l-.289.743-.187.475.54.014.747-.019h.165l1.625.017h.129a1.4,1.4,0,0,0,1.161-.361,1.751,1.751,0,0,0,.482-.738l.2-.47H72.2l-.776-.036.092-.433.179-.917.125-.619.1-.6.111-.6,2.353-3.216.553-.719,1.177-1.545a6.528,6.528,0,0,1,.948-1.151l.649-.605-.926.019-1.009.021Zm15.239.361a11.071,11.071,0,0,0-3.574-.59,5.346,5.346,0,0,0-3.379,1.02,3.761,3.761,0,0,0-1.426,2.749,2.467,2.467,0,0,0,.956,1.973,7.356,7.356,0,0,0,1.308.762l1.872.958a4.452,4.452,0,0,1,.9.511,1.351,1.351,0,0,1,.518,1.078c0,1.357-1.519,1.508-2.172,1.508l-1.075-.095-.769-.215a8.168,8.168,0,0,1-.119-1.254l-.024-.461-.016-.332H83.66c-.942,0-1.288.287-1.414,1.164l-.331,2.019-.042.275.277.1a9.677,9.677,0,0,0,3.387.614c3.136-.017,5.322-1.7,5.322-4.071.022-1.287-.577-2.067-2.218-2.891l-.4-.193-1.911-.98a3.471,3.471,0,0,1-.731-.475.786.786,0,0,1-.374-.748c0-.8.8-1.314,2.023-1.314a5.028,5.028,0,0,1,1.722.3l.044.022a11.993,11.993,0,0,1,.139,1.72l.016.347.368-.024c.964-.046,1.288-.322,1.42-1.182l.331-2.2-.275-.1Z" transform="translate(-0.247 -2.266)" fill="#8a9497" stroke="#aaa" stroke-width="0.2" fill-rule="evenodd"/>
  </g>
</svg>
