<svg id="trenitalia-mono" xmlns="http://www.w3.org/2000/svg" width="179.19" height="53" viewBox="0 0 179.19 53">
  <path id="Path_88" data-name="Path 88" d="M0,0H179.19V53H0Z" fill="none" fill-rule="evenodd"/>
  <g id="Group_9690" data-name="Group 9690" transform="translate(13.937)">
    <path id="Path_89" data-name="Path 89" d="M55.45,27.179H66.506l-1.051,2.246a.679.679,0,0,0-.6-.438H61.937l-4.5,9.549H54.576l4.5-9.551H55.44a1.869,1.869,0,0,0-1.047.438l1.055-2.244Zm32.844,9.184L87.27,38.538H76.585l4.978-10.584a1.075,1.075,0,0,0,.01-.8H91.1l-1.053,2.238a.682.682,0,0,0-.6-.438H83.957l-1.274,2.718h5.553l-1.051,2.238a.679.679,0,0,0-.6-.436H81.837L80.3,36.738l6.9,0a2,2,0,0,0,1.089-.378Zm52.77,0-1.021,2.174h-8.115L136.9,27.954a1.043,1.043,0,0,0,.012-.8h3.213l-4.492,9.587,4.334,0a1.984,1.984,0,0,0,1.091-.378Zm-77.8,2.174,4.954-10.552a1.107,1.107,0,0,0,.018-.808H73.95c1.105,0,3.2-.03,3.2,2.666a4.3,4.3,0,0,1-3.206,3.962l.834,3.908a1.328,1.328,0,0,0,.518.826H72.222l-.908-4.7H68.328l-2.2,4.7H63.265Zm11.142-8.7a.881.881,0,0,0-.942-.86H70.617l-1.445,3.058h2.674a2.352,2.352,0,0,0,2.56-2.2Zm33.327-2.686a1.067,1.067,0,0,1-.012.81l-4.97,10.572h2.867l5.356-11.383Zm38.635,0a1.031,1.031,0,0,1-.01.81l-4.97,10.572h2.867l5.356-11.383h-3.245ZM113,27.179h11.058l-1.051,2.246a.681.681,0,0,0-.6-.438h-2.919l-4.5,9.551h-2.857l4.5-9.551H113a1.881,1.881,0,0,0-1.049.438L113,27.179Zm14.2.014a1.441,1.441,0,0,1-.358.918l-8.7,10.445h2.5l2.061-2.586h5.334l.054,2.588h2.624l-.563-11.369-2.953,0Zm-3.02,6.927,3.733-4.663L128,34.12h-3.823ZM154.614,27.2a1.435,1.435,0,0,1-.364.92l-8.727,10.477h2.509L150.1,36h5.35l.052,2.594h2.632l-.565-11.4h-2.957Zm-3.032,6.949,3.743-4.679.09,4.679Zm-57.97-5.4.352-.753a1,1,0,0,0,.012-.8h2.847l2.67,7.9,3.337-7.1a.984.984,0,0,0,.014-.8h2.349L99.849,38.562H97.8L94.955,30.1l-3.968,8.462H89l4.615-9.82ZM12.6,46.8v-.056H9.836v1.061H11.28a1.2,1.2,0,0,1-.209.546,1.483,1.483,0,0,1-1.211.567,1.881,1.881,0,0,1,.008-3.741,1.654,1.654,0,0,1,.852.229,1.553,1.553,0,0,1,.559.518l.976-.591a2.652,2.652,0,0,0-.583-.681,2.858,2.858,0,0,0-1.836-.625,3.009,3.009,0,0,0-.04,6,2.677,2.677,0,0,0,2.477-1.487A3.754,3.754,0,0,0,12.6,46.8Zm145.538-1.509V44.182H155V49.91h3.126V48.766H156.2V47.541h1.891V46.428H156.2V45.293ZM137.3,49.912l-2.266-5.73h-1.274L131.6,49.914h1.282l.406-1.161h2.288l.43,1.161h1.3Zm-2.122-2.242h-1.515l.741-2.264Zm5.676,2.242V48.785h-1.882V44.18h-1.2v5.73h3.086Zm1.844,0V44.18h-1.2v5.73h1.2Zm6.154,0-2.262-5.732h-1.274l-2.164,5.73h1.284l.4-1.161h2.29l.43,1.161h1.294Zm-2.122-2.242h-1.515l.741-2.264Zm7.359,2.242V44.18h-1.127l.022,3.775-2.568-3.775h-1.087v5.73h1.135l-.032-3.847,2.584,3.847h1.073Zm-22.222-4.627v-1.1h-3.554V45.3h1.179V49.91h1.195V45.285h1.181Zm-8.2,1.77a2.94,2.94,0,1,0-5.875.048,2.938,2.938,0,1,0,5.875-.048Zm-1.234.016a1.712,1.712,0,0,1-1.655,1.818,1.682,1.682,0,0,1-1.258-.518,1.82,1.82,0,0,1-.508-1.3,1.77,1.77,0,0,1,1.732-1.844A1.725,1.725,0,0,1,122.429,47.071Zm5.328,2.841V44.18h-1.2v5.73h1.2Zm-10.116-4.627v-1.1h-3.552V45.3h1.179V49.91h1.195V45.285h1.179Zm-3.247,4.629-2.266-5.73h-1.27l-2.164,5.73h1.282l.406-1.161h2.288l.43,1.161h1.294Zm-2.126-2.242h-1.513l.741-2.264.772,2.264Zm-3.311-2.385v-1.1H105.4V45.3h1.179v4.609h1.195V45.287h1.181ZM98.8,47.057a2.938,2.938,0,1,0-5.871.048,2.937,2.937,0,1,0,5.873-.048Zm-1.234.016a1.71,1.71,0,0,1-1.653,1.818,1.682,1.682,0,0,1-1.258-.518,1.82,1.82,0,0,1-.51-1.3,1.77,1.77,0,0,1,1.732-1.844,1.726,1.726,0,0,1,1.69,1.844Zm7.508,1.089c0-1.788-2.218-1.617-2.218-2.509a.5.5,0,0,1,.524-.5,1.033,1.033,0,0,1,.82.544l.765-.892a1.963,1.963,0,0,0-1.585-.773,1.678,1.678,0,0,0-1.772,1.664c0,.976.741,1.443,1.489,1.818a1.992,1.992,0,0,1,.5.3.633.633,0,0,1,.217.488.674.674,0,0,1-.695.681,1.4,1.4,0,0,1-1.037-.651l-.78.9a2.426,2.426,0,0,0,1.766.82,1.859,1.859,0,0,0,2-1.881ZM92.64,49.914V48.787H90.758V44.18h-1.2v5.73h3.086Zm-11.5-2.933a3.037,3.037,0,0,0-.406-1.549c-.649-1.151-1.742-1.248-2.907-1.248H76.708v5.728H78a3.2,3.2,0,0,0,2.148-.546A3.1,3.1,0,0,0,81.136,46.982Zm-1.171.036c0,1.153-.577,1.891-1.728,1.891h-.329V45.182h.165a1.967,1.967,0,0,1,1.3.342A1.912,1.912,0,0,1,79.965,47.017ZM85.034,45.3V44.184H81.9v5.728h3.126V48.768H83.1V47.543h1.891V46.43H83.1V45.3h1.939ZM88.9,49.914V48.787H87.017V44.18h-1.2v5.73H88.9ZM73.576,45.3V44.184H70.444v5.728H73.57V48.768H71.639V47.543H73.53V46.43H71.639V45.3Zm-4.257,4.619V44.18h-1.2v5.73h1.2Zm-1.641-5.73h-1.3L65,48.274l-1.382-4.09H62.3l2.061,5.728h1.155l2.16-5.728ZM62.2,47.057a2.939,2.939,0,1,0-5.873.048,2.937,2.937,0,1,0,5.873-.048Zm-1.234.016a1.711,1.711,0,0,1-1.655,1.818,1.682,1.682,0,0,1-1.258-.518,1.82,1.82,0,0,1-.508-1.3,1.77,1.77,0,0,1,1.732-1.844,1.724,1.724,0,0,1,1.688,1.844ZM31.1,45.97a1.872,1.872,0,0,0-.3-1.071,1.777,1.777,0,0,0-1.477-.709c-.11-.006-.227-.006-.336-.006H27.369v5.728h1.195V47.738h.571a1.95,1.95,0,0,0,1.453-.454A1.852,1.852,0,0,0,31.1,45.97Zm-1.175-.01c0,.528-.366.721-.826.721h-.524V45.22h.5a1.4,1.4,0,0,1,.376.034.681.681,0,0,1,.478.707Zm7.227,1.1a2.94,2.94,0,1,0-5.875.048,2.937,2.937,0,1,0,5.873-.048Zm-1.234.016a1.711,1.711,0,0,1-1.657,1.818A1.682,1.682,0,0,1,33,48.373a1.82,1.82,0,0,1-.508-1.3,1.84,1.84,0,0,1,.494-1.3,1.7,1.7,0,0,1,1.24-.544,1.724,1.724,0,0,1,1.686,1.844Zm7.339.438V46.39h-2V45.269h2V44.182h-3.2v5.73h1.2v-2.4h2ZM46.919,45.3V44.184H43.785v5.728h3.126V48.768H44.979V47.543h1.891V46.43H44.979V45.3Zm4.818,4.619-1.593-2.435a1.792,1.792,0,0,0,.609-.227,1.623,1.623,0,0,0,.633-1.37,1.883,1.883,0,0,0-.259-.96,1.993,1.993,0,0,0-1.889-.737H47.691v5.728h1.163V47.5l1.461,2.417h1.422ZM50.214,45.93a.752.752,0,0,1-.92.763h-.43V45.182h.406c.484,0,.944.163.944.749Zm5.913,3.982-1.593-2.433a1.792,1.792,0,0,0,.607-.227,1.623,1.623,0,0,0,.633-1.37,1.883,1.883,0,0,0-.259-.96,2,2,0,0,0-1.889-.737H52.079v5.728h1.165V47.5l1.461,2.417h1.422ZM54.6,45.93a.752.752,0,0,1-.92.763h-.428V45.182h.406c.484,0,.942.163.942.749Zm-27.765.04a1.872,1.872,0,0,0-.3-1.071,1.774,1.774,0,0,0-1.475-.709c-.111-.006-.227-.006-.336-.006H23.112v5.728h1.195V47.738h.569a1.95,1.95,0,0,0,1.453-.454,1.838,1.838,0,0,0,.508-1.314Zm-1.171-.01c0,.528-.368.721-.828.721h-.524V45.22h.5a1.457,1.457,0,0,1,.374.034A.681.681,0,0,1,25.667,45.96Zm-8.289,3.954-1.593-2.435a1.806,1.806,0,0,0,.609-.227,1.623,1.623,0,0,0,.633-1.37,1.866,1.866,0,0,0-.259-.96,1.99,1.99,0,0,0-1.889-.737H13.334v5.728H14.5V47.5l1.459,2.417ZM15.857,45.93a.756.756,0,0,1-.922.763H14.5V45.182h.406c.486,0,.948.163.948.749Zm6.317,1.443V44.18H21v3.58c0,.707-.283,1.185-1.017,1.185a1.069,1.069,0,0,1-.89-.4,1.279,1.279,0,0,1-.193-.828V44.18H17.729v3.58a2.937,2.937,0,0,0,.151,1.047,2.1,2.1,0,0,0,2.063,1.26,2.13,2.13,0,0,0,1.844-.886,3.172,3.172,0,0,0,.388-1.812Zm6.433-30.211L16.683,18.417,8.648,34.968c6.357,0,9.619-.643,13.338-6.148A117.146,117.146,0,0,0,28.607,17.16ZM60.838,1.842,61.752,0H36.685c-8.5,0-12.836,2.987-15.474,8.517-2.065,4.328-2.057,4.332-2.057,4.332H30.541C34.588,4.792,39.522,2.017,51.586,1.844h9.252Z" transform="translate(-6.999)" fill="#8a9497"/>
    <path id="Path_90" data-name="Path 90" d="M60.066,1.818c-15.287.139-17.829,2.724-21.292,9.228l16.912.008,4.38-9.236ZM43.857,24.6A14.041,14.041,0,0,1,32.776,36.117a39.958,39.958,0,0,1-5.587.617H7l.778-1.651s6.837-.054,7.753-.054a61.2,61.2,0,0,0,6.628-.48,11.2,11.2,0,0,0,9.82-8.537l1.358-4.786a8.384,8.384,0,0,1,8.143-6.97L54.561,13.4l-.627,1.3-4.028.259a6.4,6.4,0,0,0-5.738,5.758L43.857,24.6Z" transform="translate(-7 1.802)" fill="#8a9497"/>
  </g>
</svg>
